<?xml version="1.0" encoding="utf-8"?>
<!-- Generator: Adobe Illustrator 25.0.1, SVG Export Plug-In . SVG Version: 6.00 Build 0)  -->
<svg version="1.1" id="Layer_1" xmlns="http://www.w3.org/2000/svg" xmlns:xlink="http://www.w3.org/1999/xlink" x="0px" y="0px"
	 viewBox="0 0 841.9 595.3" style="enable-background:new 0 0 841.9 595.3;" xml:space="preserve">
<style type="text/css">
	.st0{fill:#223A89;}
	.st1{fill:#EC641C;}
	.st2{display:none;fill:#EC641C;enable-background:new    ;}
	.st3{font-family:'Montserrat-SemiBold';}
	.st4{font-size:101.041px;}
	.st5{display:none;fill:none;stroke:#223A89;stroke-width:0.5;stroke-miterlimit:10;enable-background:new    ;}
	.st6{fill:#EC641C;stroke:#223A89;stroke-width:0.5;stroke-miterlimit:10;}
	.st7{display:none;fill:#223A89;enable-background:new    ;}
	.st8{font-family:'Montserrat-Medium';}
	.st9{font-size:26px;}
	.st10{letter-spacing:2;}
	.st11{fill:#FFFFFF;}
</style>
<g>
	<g>
		<path class="st0" d="M565.1,117.6v173.3c0,31.5-25.5,57-57,57h-24.6c16.3-13.6,26.7-34.1,26.7-57V117.6H565.1z"/>
		<path class="st1" d="M262.7,117.7V291c0,31.4,25.5,57,57,57H436c31.4,0,57-25.5,57-57V117.7H262.7z M409.5,236.2l7.5,43.7
			l-39.2-20.6l-39.2,20.6l7.5-43.7l-31.7-30.9l43.8-6.4l19.6-39.7l19.6,39.7l43.8,6.4L409.5,236.2z"/>
		<g>
			<path class="st0" d="M492.1,103.7h-21.2V90.8c0-22-17.9-39.9-39.9-39.9s-39.9,17.9-39.9,39.9v12.9h-21.2V90.8
				c0-33.7,27.4-61.1,61.1-61.1s61.1,27.4,61.1,61.1V103.7z"/>
		</g>
		<g>
			<g>
				<path class="st1" d="M439,103.7h-21.2V90.8c0-22-17.9-39.9-39.9-39.9S338,68.8,338,90.8v12.9h-21.2V90.8
					c0-33.7,27.4-61.1,61.1-61.1S439,57.1,439,90.8V103.7z"/>
			</g>
		</g>
	</g>
	<text transform="matrix(1 0 0 1 95.0885 483.9531)" class="st2 st3 st4">TrustMarket</text>
	<text transform="matrix(1 0 0 1 95.0885 483.9531)" class="st5 st3 st4">TrustMarket</text>
	<g>
		<path class="st6" d="M121,424.3H97.5v-11.1h60v11.1h-23.4V484H121V424.3z"/>
		<path class="st6" d="M196.1,429.4v12c-1.1-0.2-2-0.3-2.9-0.3c-9.6,0-15.7,5.7-15.7,16.7V484h-12.6v-54h12v7.9
			C180.6,432.2,187.1,429.4,196.1,429.4z"/>
		<path class="st6" d="M259.6,430v54h-12v-6.9c-4,5-10.4,7.6-17.4,7.6c-13.8,0-23.2-7.6-23.2-23.8V430h12.6v29.1
			c0,9.8,4.6,14.4,12.6,14.4c8.8,0,14.8-5.5,14.8-16.3V430H259.6z"/>
		<path class="st6" d="M270,478.6l4.9-9.6c4.7,3.1,12,5.4,18.8,5.4c8,0,11.3-2.2,11.3-6c0-10.3-33.3-0.6-33.3-22.1
			c0-10.2,9.2-16.9,23.7-16.9c7.2,0,15.4,1.7,20.2,4.6l-4.8,9.6c-5.2-3-10.3-4-15.5-4c-7.7,0-11.3,2.5-11.3,6.1
			c0,10.9,33.3,1.2,33.3,22.3c0,10.1-9.3,16.7-24.5,16.7C283.8,484.7,274.8,482,270,478.6z"/>
		<path class="st6" d="M360.6,481c-3,2.4-7.6,3.6-12.1,3.6c-11.8,0-18.6-6.3-18.6-18.2v-26H321v-10.1h8.9V418h12.6v12.3H357v10.1
			h-14.4v25.7c0,5.3,2.6,8.1,7.5,8.1c2.6,0,5.2-0.7,7.1-2.2L360.6,481z"/>
		<path class="st6" d="M437.2,484l-0.1-46.9l-23.2,38.8H408l-23.2-38.2V484h-12.5v-70.7h10.8l28.1,46.9l27.6-46.9h10.8l0.1,70.7
			H437.2z"/>
		<path class="st6" d="M512.7,452.3V484h-11.9v-6.6c-3,4.6-8.9,7.3-17,7.3c-12.3,0-20.1-6.8-20.1-16.2c0-9,6.1-16.1,22.4-16.1H500
			v-0.8c0-7.4-4.4-11.7-13.4-11.7c-6.1,0-12.3,2-16.4,5.4l-5-9.2c5.8-4.4,14.1-6.7,22.8-6.7C503.7,429.4,512.7,436.8,512.7,452.3z
			 M500.1,467.1v-6.3h-13c-8.6,0-10.9,3.2-10.9,7.2c0,4.5,3.8,7.5,10.3,7.5C492.6,475.5,497.9,472.6,500.1,467.1z"/>
		<path class="st6" d="M560.1,429.4v12c-1.1-0.2-2-0.3-2.9-0.3c-9.6,0-15.7,5.7-15.7,16.7V484h-12.6v-54h12v7.9
			C544.5,432.2,551.1,429.4,560.1,429.4z"/>
		<path class="st6" d="M592.8,460.8l-9.4,8.9V484h-12.6v-75h12.6v45.3l26.2-24.2h15.2l-22.5,22.6L627,484h-15.4L592.8,460.8z"/>
		<path class="st6" d="M683.3,461H641c1.5,7.9,8.1,12.9,17.5,12.9c6.1,0,10.8-1.9,14.7-5.9l6.8,7.8c-4.9,5.8-12.4,8.8-21.7,8.8
			c-18.1,0-29.8-11.6-29.8-27.7s11.8-27.6,27.9-27.6c15.8,0,27.3,11,27.3,27.9C683.5,458.3,683.4,459.8,683.3,461z M640.9,452.6
			h30.6c-1-7.8-7-13.1-15.3-13.1C648.1,439.5,642.1,444.7,640.9,452.6z"/>
		<path class="st6" d="M728.1,481c-3,2.4-7.6,3.6-12.1,3.6c-11.8,0-18.6-6.3-18.6-18.2v-26h-8.9v-10.1h8.9V418H710v12.3h14.4v10.1
			H710v25.7c0,5.3,2.6,8.1,7.5,8.1c2.6,0,5.2-0.7,7.1-2.2L728.1,481z"/>
	</g>
	<text transform="matrix(1 0 0 1 151.9512 554.1758)" class="st7 st8 st9 st10">CONFIANÇA EM CADA COMPRA</text>
	<g>
		<path class="st11" d="M154.3,545.1c0-5.4,4.1-9.3,9.6-9.3c2.8,0,5.3,1,6.9,2.8l-1.7,1.6c-1.4-1.5-3.1-2.2-5.1-2.2
			c-4.1,0-7.2,3-7.2,7s3,7,7.2,7c2,0,3.7-0.7,5.1-2.2l1.7,1.6c-1.7,1.9-4.1,2.9-6.9,2.9C158.4,554.4,154.3,550.5,154.3,545.1z"/>
		<path class="st11" d="M176.6,545.1c0-5.3,4.1-9.3,9.7-9.3c5.5,0,9.6,4,9.6,9.3s-4.1,9.3-9.6,9.3
			C180.7,554.4,176.6,550.4,176.6,545.1z M193.3,545.1c0-4-3-7-7-7c-4.1,0-7.1,3-7.1,7s3,7,7.1,7
			C190.3,552.1,193.3,549.1,193.3,545.1z"/>
		<path class="st11" d="M219.5,536v18.2h-2.1l-10.9-13.6v13.6h-2.6V536h2.1l10.9,13.6V536H219.5z"/>
		<path class="st11" d="M231.4,538.2v6.3h9.1v2.2h-9.1v7.4h-2.6V536h12.8v2.3L231.4,538.2L231.4,538.2z"/>
		<path class="st11" d="M249.2,536h2.6v18.2h-2.6V536z"/>
		<path class="st11" d="M272.8,549.6h-9.7l-2,4.5h-2.7l8.2-18.2h2.6l8.3,18.2h-2.7L272.8,549.6z M271.9,547.5l-3.9-8.9l-3.9,8.9
			H271.9z"/>
		<path class="st11" d="M299.8,536v18.2h-2.1l-10.9-13.6v13.6h-2.6V536h2.1l10.9,13.6V536H299.8z"/>
		<path class="st11" d="M322.5,549.9l1.7,1.6c-1.6,1.8-4,2.8-6.8,2.9l-0.3,1.1c1.5,0.2,2.3,1,2.3,2.2c0,1.5-1.3,2.4-3.2,2.4
			c-0.9,0-1.7-0.2-2.3-0.6l0.5-1.3c0.5,0.3,1.1,0.4,1.8,0.4c1,0,1.5-0.4,1.5-1s-0.4-1-1.5-1h-0.7l0.6-2.2c-4.9-0.5-8.4-4.3-8.4-9.2
			c0-5.4,4.1-9.3,9.6-9.3c2.8,0,5.3,1,6.9,2.8l-1.7,1.6c-1.4-1.5-3.1-2.2-5.1-2.2c-4.1,0-7.2,3-7.2,7s3,7,7.2,7
			C319.4,552.1,321.1,551.4,322.5,549.9z"/>
		<path class="st11" d="M343,549.6h-9.7l-2,4.5h-2.7l8.2-18.2h2.6l8.3,18.2H345L343,549.6z M342.1,547.5l-3.9-8.9l-3.9,8.9H342.1z"
			/>
		<path class="st11" d="M378.4,551.9v2.3h-13.2V536H378v2.3h-10.2v5.6h9.1v2.2h-9.1v5.9L378.4,551.9L378.4,551.9z"/>
		<path class="st11" d="M403.4,554.2v-13.3l-6.6,11.1h-1.2l-6.6-11v13.2h-2.5V536h2.1l7.6,12.8l7.5-12.8h2.1v18.2H403.4z"/>
		<path class="st11" d="M424.7,545.1c0-5.4,4.1-9.3,9.6-9.3c2.8,0,5.3,1,6.9,2.8l-1.7,1.6c-1.4-1.5-3.1-2.2-5.1-2.2
			c-4.1,0-7.2,3-7.2,7s3,7,7.2,7c2,0,3.7-0.7,5.1-2.2l1.7,1.6c-1.7,1.9-4.1,2.9-6.9,2.9C428.8,554.4,424.7,550.5,424.7,545.1z"/>
		<path class="st11" d="M460,549.6h-9.7l-2,4.5h-2.7l8.2-18.2h2.6l8.3,18.2H462L460,549.6z M459.1,547.5l-3.9-8.9l-3.9,8.9H459.1z"
			/>
		<path class="st11" d="M471.4,536h7.7c5.9,0,9.8,3.7,9.8,9.1s-4,9.1-9.8,9.1h-7.7V536z M478.9,551.9c4.5,0,7.4-2.8,7.4-6.8
			s-2.9-6.8-7.4-6.8H474V552h4.9V551.9z"/>
		<path class="st11" d="M508.1,549.6h-9.7l-2,4.5h-2.7L502,536h2.6l8.3,18.2h-2.7L508.1,549.6z M507.2,547.5l-3.9-8.9l-3.9,8.9
			H507.2z"/>
		<path class="st11" d="M528.8,545.1c0-5.4,4.1-9.3,9.6-9.3c2.8,0,5.3,1,6.9,2.8l-1.7,1.6c-1.4-1.5-3.1-2.2-5.1-2.2
			c-4.1,0-7.2,3-7.2,7s3,7,7.2,7c2,0,3.7-0.7,5.1-2.2l1.7,1.6c-1.7,1.9-4.1,2.9-6.9,2.9C532.9,554.4,528.8,550.5,528.8,545.1z"/>
		<path class="st11" d="M551.1,545.1c0-5.3,4.1-9.3,9.7-9.3c5.5,0,9.6,4,9.6,9.3s-4.1,9.3-9.6,9.3
			C555.2,554.4,551.1,550.4,551.1,545.1z M567.9,545.1c0-4-3-7-7-7c-4.1,0-7.1,3-7.1,7s3,7,7.1,7
			C564.9,552.1,567.9,549.1,567.9,545.1z"/>
		<path class="st11" d="M595.2,554.2v-13.3l-6.6,11.1h-1.2l-6.6-11v13.2h-2.5V536h2.1l7.6,12.8l7.5-12.8h2.1v18.2H595.2z"/>
		<path class="st11" d="M621.8,542.3c0,4-2.9,6.3-7.6,6.3h-4.5v5.5h-2.6V536h7.1C618.9,536,621.8,538.4,621.8,542.3z M619.2,542.3
			c0-2.6-1.7-4.1-5.1-4.1h-4.4v8.2h4.4C617.4,546.4,619.2,544.9,619.2,542.3z"/>
		<path class="st11" d="M641.7,554.2l-3.9-5.6c-0.4,0-0.8,0.1-1.1,0.1h-4.5v5.5h-2.6V536h7.1c4.7,0,7.6,2.4,7.6,6.3
			c0,2.8-1.5,4.8-4,5.7l4.3,6.1h-2.9V554.2z M641.6,542.3c0-2.6-1.7-4.1-5.1-4.1h-4.4v8.2h4.4C639.8,546.4,641.6,544.9,641.6,542.3z
			"/>
		<path class="st11" d="M663.9,549.6h-9.7l-2,4.5h-2.7l8.2-18.2h2.6l8.3,18.2h-2.7L663.9,549.6z M663,547.5l-3.9-8.9l-3.9,8.9H663z"
			/>
	</g>
</g>
</svg>
