<?xml version="1.0" encoding="utf-8"?>
<!-- Generator: Adobe Illustrator 25.0.1, SVG Export Plug-In . SVG Version: 6.00 Build 0)  -->
<svg version="1.1" id="Layer_1" xmlns="http://www.w3.org/2000/svg" xmlns:xlink="http://www.w3.org/1999/xlink" x="0px" y="0px"
	 viewBox="0 0 302.4 318.3" style="enable-background:new 0 0 302.4 318.3;" xml:space="preserve">
<style type="text/css">
	.st0{fill:#223A89;}
	.st1{fill:#EC641C;}
</style>
<g>
	<path class="st0" d="M302.4,88v173.3c0,31.5-25.5,57-57,57h-24.6c16.3-13.6,26.7-34.1,26.7-57V88H302.4z"/>
	<path class="st1" d="M0,88v173.3c0,31.4,25.5,57,57,57h116.3c31.4,0,57-25.5,57-57V88H0z M146.8,206.5l7.5,43.7l-39.2-20.6
		l-39.2,20.6l7.5-43.7l-31.7-30.9l43.8-6.4l19.6-39.7l19.6,39.7l43.8,6.4L146.8,206.5z"/>
	<g>
		<path class="st0" d="M229.4,74h-21.2V61.1c0-22-17.9-39.9-39.9-39.9c-22,0-39.9,17.9-39.9,39.9V74h-21.2V61.1
			c0-33.7,27.4-61.1,61.1-61.1c33.7,0,61.1,27.4,61.1,61.1V74z"/>
	</g>
	<g>
		<g>
			<path class="st1" d="M176.3,74H155V61.1c0-22-17.9-39.9-39.9-39.9c-22,0-39.9,17.9-39.9,39.9V74H54V61.1C54,27.4,81.4,0,115.1,0
				c33.7,0,61.1,27.4,61.1,61.1V74z"/>
		</g>
	</g>
</g>
</svg>
